<svg width="25" height="25" viewBox="0 0 25 25" fill="none" xmlns="http://www.w3.org/2000/svg">
<g clip-path="url(#clip0_334_8006)">
<path d="M24 12.5C24.0046 14.2857 23.5874 16.0472 22.7823 17.6412C21.8277 19.5512 20.3602 21.1577 18.5442 22.2808C16.7281 23.4038 14.6353 23.9991 12.5 24C10.7143 24.0046 8.95276 23.5874 7.35884 22.7823L1.07974 23.9204L2.21768 17.6412C1.41259 16.0472 0.995383 14.2857 1.00004 12.5C1.00086 10.3647 1.59616 8.27187 2.71924 6.45582C3.84232 4.63977 5.44884 3.17227 7.35884 2.21768C8.95276 1.41259 10.7143 0.995383 12.5 1.00004H13.1765C15.9965 1.15562 18.66 2.34589 20.657 4.34295C22.6541 6.34002 23.8444 9.00354 24 11.8235V12.5Z" stroke="#4D730C" stroke-width="2" stroke-linecap="round" stroke-linejoin="round"/>
<path d="M17.9997 14.9843V16.7908C18.0003 16.9585 17.9687 17.1245 17.907 17.2781C17.8453 17.4318 17.7548 17.5697 17.6413 17.6831C17.5278 17.7965 17.3938 17.8828 17.2479 17.9365C17.102 17.9903 16.9474 18.0102 16.794 17.9951C15.092 17.7938 13.4572 17.1606 12.0209 16.1465C10.6846 15.222 9.55159 13.9884 8.70244 12.5335C7.76772 10.9626 7.18603 9.17405 7.00449 7.31277C6.99067 7.14625 7.00884 6.97843 7.05786 6.81998C7.10688 6.66153 7.18566 6.51592 7.28919 6.39244C7.39273 6.26896 7.51874 6.1703 7.65922 6.10274C7.79969 6.03519 7.95155 6.00022 8.10511 6.00006H9.76434C10.0328 5.99718 10.293 6.10067 10.4965 6.29122C10.7 6.48178 10.8329 6.74641 10.8705 7.03578C10.9405 7.61389 11.0704 8.18152 11.2577 8.72785C11.3321 8.94338 11.3482 9.17761 11.3041 9.4028C11.2599 9.62799 11.1575 9.83469 11.0088 9.99841L10.3064 10.7632C11.0937 12.2707 12.2402 13.5189 13.6248 14.3761L14.3272 13.6114C14.4776 13.4495 14.6675 13.3379 14.8743 13.2899C15.0811 13.2419 15.2963 13.2594 15.4942 13.3404C15.996 13.5443 16.5174 13.6857 17.0484 13.7619C17.317 13.8032 17.5624 13.9505 17.7378 14.1759C17.9132 14.4013 18.0064 14.689 17.9997 14.9843Z" fill="#4D730C"/>
</g>
<defs>
<clipPath id="clip0_334_8006">
<rect width="25" height="25" fill="white"/>
</clipPath>
</defs>
</svg>
