<svg width="27" height="27" viewBox="0 0 27 27" fill="none" xmlns="http://www.w3.org/2000/svg">
<path d="M13.125 10.6446C14.8242 10.6446 16.2305 12.0508 16.2305 13.75C16.2305 15.5078 14.8242 16.9141 13.125 16.9141C11.3672 16.9141 9.96094 15.5078 9.96094 13.75C9.96094 12.0508 11.3672 10.6446 13.125 10.6446ZM20.3906 8.24222C20.918 9.47269 20.8008 12.4024 20.8008 13.75C20.8008 15.1563 20.918 18.086 20.3906 19.3164C20.0977 20.1367 19.4531 20.7813 18.6328 21.0742C17.4023 21.6016 14.4727 21.4844 13.125 21.4844C11.7188 21.4844 8.78906 21.6016 7.55859 21.0742C6.73828 20.7813 6.09375 20.1367 5.80078 19.3164C5.33203 18.086 5.39062 15.1563 5.39062 13.75C5.39062 12.4024 5.33203 9.47269 5.80078 8.24222C6.09375 7.42191 6.73828 6.77737 7.55859 6.48441C8.78906 5.95706 11.7188 6.07425 13.125 6.07425C14.4727 6.07425 17.4023 5.95706 18.6328 6.48441C19.4531 6.77737 20.0977 7.42191 20.3906 8.24222ZM13.125 18.5547V18.6133C15.7617 18.6133 17.9297 16.4453 17.9297 13.8086V13.75C17.9297 11.1133 15.7617 8.94534 13.125 8.94534C10.4297 8.94534 8.32031 11.1133 8.32031 13.75C8.32031 16.4453 10.4297 18.5547 13.125 18.5547ZM18.1055 9.88284C18.6914 9.88284 19.2188 9.41409 19.2188 8.76956C19.2188 8.12503 18.6914 7.65628 18.1055 7.65628C17.4609 7.65628 16.9922 8.12503 16.9922 8.76956C16.9922 9.41409 17.4609 9.88284 18.1055 9.88284ZM23.4375 0.625031C24.9609 0.625031 26.25 1.91409 26.25 3.43753V24.0625C26.25 25.6446 24.9609 26.875 23.4375 26.875H2.8125C1.23047 26.875 0 25.6446 0 24.0625V3.43753C0 1.91409 1.23047 0.625031 2.8125 0.625031H23.4375ZM22.3828 17.6172C22.5 16.0938 22.5 11.4649 22.3828 9.94144C22.3242 8.418 21.9727 7.07034 20.918 6.01566C19.8047 4.90237 18.457 4.55081 16.9922 4.49222C15.4102 4.37503 10.7812 4.37503 9.25781 4.49222C7.73438 4.55081 6.38672 4.90237 5.33203 5.95706C4.21875 7.07034 3.86719 8.418 3.80859 9.88284C3.69141 11.4649 3.69141 16.0938 3.80859 17.6172C3.86719 19.1407 4.21875 20.4883 5.33203 21.543C6.38672 22.6563 7.73438 23.0078 9.25781 23.0664C10.7812 23.1836 15.4102 23.1836 16.9922 23.0664C18.457 23.0078 19.8047 22.6563 20.918 21.543C21.9727 20.4883 22.3242 19.1407 22.3828 17.6172Z" fill="#4D730C"/>
</svg>
