<svg width="27" height="27" viewBox="0 0 27 27" fill="none" xmlns="http://www.w3.org/2000/svg">
<path d="M10.8984 10.6446L16.5234 13.8086L10.8984 16.9727V10.6446ZM26.25 3.43753V24.0625C26.25 25.6446 24.9609 26.875 23.4375 26.875H2.8125C1.23047 26.875 0 25.6446 0 24.0625V3.43753C0 1.91409 1.23047 0.625031 2.8125 0.625031H23.4375C24.9609 0.625031 26.25 1.91409 26.25 3.43753ZM23.7891 13.8086C23.7891 13.8086 23.7891 10.293 23.3203 8.65237C23.0859 7.71487 22.3242 6.95316 21.4453 6.71878C19.7461 6.25003 13.125 6.25003 13.125 6.25003C13.125 6.25003 6.44531 6.25003 4.74609 6.71878C3.86719 6.95316 3.10547 7.71487 2.87109 8.65237C2.46094 10.293 2.46094 13.8086 2.46094 13.8086C2.46094 13.8086 2.46094 17.2657 2.87109 18.9649C3.10547 19.9024 3.86719 20.6055 4.74609 20.8399C6.44531 21.25 13.125 21.25 13.125 21.25C13.125 21.25 19.7461 21.25 21.4453 20.8399C22.3242 20.6055 23.0859 19.9024 23.3203 18.9649C23.7891 17.2657 23.7891 13.8086 23.7891 13.8086Z" fill="#4D730C"/>
</svg>
